.
..............................Site Info...........................

 -   http://www.scenetime.com  *_*   

Due to high demands SceneTime is going to Close sign up on march/15, hurry up! get in before the doors are closed.

     We care to share . Join us on  http://www.scenetime.com 

    Be the first to get new release at  http://www.scenetime.com

        Seed back for speed


...................................NFO:.................................................[IMG]http://image.leechfrom.me/images/834Untitled_1gg_1_1_.gif[/IMG]

 
TITLE: 

The Cup 2011 BRRiP AC3 XViD - INSPiRAL

IMDB: 
 
http://www.imdb.com/title/tt1650056/


SOURCES:

VIDEO - 720p aAF THANKS
AUDIO - 720p aAF THANKS
SUBS  - ENGLISH WHEN NEEDED

STATS:

Video
ID                                       : 0
Format                                   : MPEG-4 Visual
Format profile                           : Advanced Simple@L5
Format settings, BVOP                    : 2
Format settings, QPel                    : No
Format settings, GMC                     : No warppoints
Format settings, Matrix                  : Default (MPEG)
Muxing mode                              : Packed bitstream
Codec ID                                 : XVID
Codec ID/Hint                            : XviD
Duration                                 : 1h 46mn
Bit rate                                 : 1 379 Kbps
Width                                    : 720 pixels
Height                                   : 304 pixels
Display aspect ratio                     : 2.35:1
Frame rate                               : 23.976 fps
Color space                              : YUV
Chroma subsampling                       : 4:2:0
Bit depth                                : 8 bits
Scan type                                : Progressive
Compression mode                         : Lossy
Bits/(Pixel*Frame)                       : 0.263
Stream size                              : 1.02 GiB (75%)
Writing library                          : XviD 64

Audio
ID                                       : 1
Format                                   : AC-3
Format/Info                              : Audio Coding 3
Mode extension                           : CM (complete main)
Codec ID                                 : 2000
Duration                                 : 1h 46mn
Bit rate mode                            : Constant
Bit rate                                 : 448 Kbps
Channel(s)                               : 6 channels
Channel positions                        : Front: L C R, Side: L R, LFE
Sampling rate                            : 48.0 KHz
Bit depth                                : 16 bits
Compression mode                         : Lossy
Stream size                              : 340 MiB (24%)
Alignment                                : Aligned on interleaves
Interleave, duration                     : 42 ms (1.00 video frame)
Interleave, preload duration             : 512 ms


NOTES:

Simple rip of the 720p release,audio encoded to AC3 and remuxed too our encode :)


SCREENS:

[IMG]http://i.imgur.com/08jMV.png[/IMG]
[IMG]http://i.imgur.com/QYTeq.png[/IMG]
[IMG]http://i.imgur.com/kuOxF.png[/IMG]
[IMG]http://i.imgur.com/GwNtK.png[/IMG]

GREETZ: 

Past,Present and Future

[IMG]http://image.leechfrom.me/images/834Untitled_1gg_1_1_.gif[/IMG]